<svg width="547" height="518" viewBox="0 0 547 518" fill="none" xmlns="http://www.w3.org/2000/svg">
<path d="M134.992 195.624C141.275 195.624 147.417 193.307 152.641 188.967C157.865 184.626 161.936 178.457 164.34 171.24C166.745 164.022 167.374 156.08 166.148 148.418C164.922 140.755 161.897 133.717 157.454 128.193C153.012 122.669 147.351 118.907 141.189 117.383C135.027 115.859 128.64 116.641 122.835 119.63C117.031 122.62 112.07 127.683 108.579 134.179C105.088 140.674 103.225 148.311 103.225 156.124C103.225 166.6 106.572 176.647 112.53 184.054C118.487 191.462 126.567 195.624 134.992 195.624ZM254.117 472.124H238.233V373.374C238.233 368.136 236.56 363.112 233.581 359.408C230.603 355.705 226.563 353.624 222.35 353.624H142.934V314.124H222.35C226.563 314.124 230.603 312.043 233.581 308.339C236.56 304.635 238.233 299.612 238.233 294.374C238.233 289.136 236.56 284.112 233.581 280.408C230.603 276.705 226.563 274.624 222.35 274.624H142.934V235.124C142.934 229.886 141.26 224.862 138.281 221.158C135.303 217.455 131.263 215.374 127.05 215.374C122.838 215.374 118.798 217.455 115.819 221.158C112.84 224.862 111.167 229.886 111.167 235.124V373.374C111.167 378.612 112.84 383.635 115.819 387.339C118.798 391.043 122.838 393.124 127.05 393.124H206.467V491.874C206.467 497.112 208.14 502.135 211.119 505.839C214.098 509.543 218.138 511.624 222.35 511.624H254.117C258.329 511.624 262.369 509.543 265.348 505.839C268.327 502.135 270 497.112 270 491.874C270 486.636 268.327 481.612 265.348 477.908C262.369 474.205 258.329 472.124 254.117 472.124ZM146.11 440.524C138.11 453.788 126.955 463.586 114.227 468.53C101.499 473.474 87.843 473.313 75.1927 468.07C62.5425 462.826 51.5397 452.767 43.7429 439.316C35.9461 425.865 31.7505 409.704 31.7505 393.124C31.7692 377.773 35.3845 362.761 42.1543 349.923C48.9242 337.086 58.5554 326.979 69.8704 320.839C71.7894 319.801 73.5252 318.304 74.9788 316.432C76.4324 314.561 77.5753 312.352 78.3423 309.931C79.1092 307.51 79.4852 304.925 79.4487 302.323C79.4122 299.722 78.9641 297.155 78.1297 294.769C77.2954 292.383 76.0913 290.224 74.5861 288.417C73.0809 286.609 71.3042 285.188 69.3573 284.234C67.4104 283.281 65.3316 282.813 63.2394 282.859C61.1472 282.904 59.0827 283.461 57.1638 284.499C43.798 291.756 31.95 302.731 22.5323 316.578C13.1147 330.425 6.37858 346.775 2.84288 364.369C-0.692825 381.963 -0.933812 400.332 2.13847 418.06C5.21075 435.788 11.5143 452.402 20.5637 466.624C29.6131 480.846 41.1669 492.295 54.3353 500.091C67.5036 507.886 81.9351 511.819 96.5184 511.587C111.102 511.355 125.448 506.965 138.451 498.753C151.455 490.542 162.77 478.729 171.524 464.224C174.051 460.033 175.136 454.766 174.541 449.581C173.945 444.395 171.717 439.717 168.347 436.574C164.977 433.431 160.741 432.081 156.571 432.822C152.4 433.563 148.638 436.333 146.11 440.524Z" fill="#3BCAEA"/>
<path d="M406.403 517.12C381.827 517.12 359.811 511.147 340.355 499.2C321.24 486.912 306.051 470.357 294.787 449.536C283.523 428.373 277.891 404.309 277.891 377.344C277.891 350.379 283.352 326.485 294.275 305.664C305.539 284.501 320.728 267.947 339.843 256C358.958 243.712 380.632 237.568 404.867 237.568C418.179 237.568 430.979 239.787 443.267 244.224C455.896 248.32 467.16 254.123 477.059 261.632C486.958 268.8 494.638 276.821 500.099 285.696C505.902 294.229 508.803 302.933 508.803 311.808L493.443 312.832V133.12H546.179V512H493.443V448H503.683C503.683 456.192 500.952 464.384 495.491 472.576C490.03 480.427 482.691 487.765 473.475 494.592C464.6 501.419 454.19 506.88 442.243 510.976C430.638 515.072 418.691 517.12 406.403 517.12ZM413.571 471.552C429.614 471.552 443.779 467.456 456.067 459.264C468.355 451.072 477.912 439.979 484.739 425.984C491.907 411.648 495.491 395.435 495.491 377.344C495.491 359.253 491.907 343.211 484.739 329.216C477.912 314.88 468.355 303.616 456.067 295.424C443.779 287.232 429.614 283.136 413.571 283.136C397.528 283.136 383.363 287.232 371.075 295.424C358.787 303.616 349.059 314.88 341.891 329.216C335.064 343.211 331.651 359.253 331.651 377.344C331.651 395.435 335.064 411.648 341.891 425.984C349.059 439.979 358.787 451.072 371.075 459.264C383.363 467.456 397.528 471.552 413.571 471.552Z" fill="#3BCAEA"/>
<path d="M342.355 452.188L411.855 382.688L481.355 313.188" stroke="#3BCAEA" stroke-width="50" stroke-linecap="round"/>
</svg>
